{
    "asset" : {
        "generator" : "Khronos glTF Blender I/O v1.3.48",
        "version" : "2.0"
    },
    "scene" : 0,
    "scenes" : [
        {
            "name" : "Scene",
            "nodes" : [
                4
            ]
        }
    ],
    "nodes" : [
        {
            "name" : "left",
            "translation" : [
                -7.2116923332214355,
                0,
                0
            ]
        },
        {
            "name" : "right",
            "translation" : [
                7.211691856384277,
                0,
                0
            ]
        },
        {
            "mesh" : 0,
            "name" : "left",
            "skin" : 0
        },
        {
            "mesh" : 1,
            "name" : "right",
            "skin" : 0
        },
        {
            "children" : [
                2,
                3,
                0,
                1
            ],
            "name" : "Gate"
        }
    ],
    "animations" : [
        {
            "channels" : [
                {
                    "sampler" : 0,
                    "target" : {
                        "node" : 0,
                        "path" : "translation"
                    }
                },
                {
                    "sampler" : 1,
                    "target" : {
                        "node" : 0,
                        "path" : "rotation"
                    }
                },
                {
                    "sampler" : 2,
                    "target" : {
                        "node" : 0,
                        "path" : "scale"
                    }
                },
                {
                    "sampler" : 3,
                    "target" : {
                        "node" : 1,
                        "path" : "translation"
                    }
                },
                {
                    "sampler" : 4,
                    "target" : {
                        "node" : 1,
                        "path" : "rotation"
                    }
                },
                {
                    "sampler" : 5,
                    "target" : {
                        "node" : 1,
                        "path" : "scale"
                    }
                }
            ],
            "name" : "open",
            "samplers" : [
                {
                    "input" : 14,
                    "interpolation" : "LINEAR",
                    "output" : 15
                },
                {
                    "input" : 14,
                    "interpolation" : "LINEAR",
                    "output" : 16
                },
                {
                    "input" : 14,
                    "interpolation" : "LINEAR",
                    "output" : 17
                },
                {
                    "input" : 14,
                    "interpolation" : "LINEAR",
                    "output" : 18
                },
                {
                    "input" : 14,
                    "interpolation" : "LINEAR",
                    "output" : 19
                },
                {
                    "input" : 14,
                    "interpolation" : "LINEAR",
                    "output" : 20
                }
            ]
        }
    ],
    "materials" : [
        {
            "doubleSided" : true,
            "name" : "metal",
            "pbrMetallicRoughness" : {}
        }
    ],
    "meshes" : [
        {
            "name" : "Plane",
            "primitives" : [
                {
                    "attributes" : {
                        "POSITION" : 0,
                        "NORMAL" : 1,
                        "TEXCOORD_0" : 2,
                        "JOINTS_0" : 3,
                        "WEIGHTS_0" : 4
                    },
                    "indices" : 5,
                    "material" : 0
                }
            ]
        },
        {
            "name" : "Plane.002",
            "primitives" : [
                {
                    "attributes" : {
                        "POSITION" : 7,
                        "NORMAL" : 8,
                        "TEXCOORD_0" : 9,
                        "COLOR_0" : 10,
                        "JOINTS_0" : 11,
                        "WEIGHTS_0" : 12
                    },
                    "indices" : 13,
                    "material" : 0
                }
            ]
        }
    ],
    "skins" : [
        {
            "inverseBindMatrices" : 6,
            "joints" : [
                0,
                1
            ],
            "name" : "Gate"
        }
    ],
    "accessors" : [
        {
            "bufferView" : 0,
            "componentType" : 5126,
            "count" : 2159,
            "max" : [
                7.450579886381092e-08,
                6.378734588623047,
                8.161406981344044e-07
            ],
            "min" : [
                -7.499999523162842,
                0,
                -0.3555682301521301
            ],
            "type" : "VEC3"
        },
        {
            "bufferView" : 1,
            "componentType" : 5126,
            "count" : 2159,
            "type" : "VEC3"
        },
        {
            "bufferView" : 2,
            "componentType" : 5126,
            "count" : 2159,
            "type" : "VEC2"
        },
        {
            "bufferView" : 3,
            "componentType" : 5123,
            "count" : 2159,
            "type" : "VEC4"
        },
        {
            "bufferView" : 4,
            "componentType" : 5126,
            "count" : 2159,
            "type" : "VEC4"
        },
        {
            "bufferView" : 5,
            "componentType" : 5123,
            "count" : 3294,
            "type" : "SCALAR"
        },
        {
            "bufferView" : 6,
            "componentType" : 5126,
            "count" : 2,
            "type" : "MAT4"
        },
        {
            "bufferView" : 7,
            "componentType" : 5126,
            "count" : 2182,
            "max" : [
                7.499999523162842,
                6.378735542297363,
                8.161406981344044e-07
            ],
            "min" : [
                0,
                0,
                -0.3555682301521301
            ],
            "type" : "VEC3"
        },
        {
            "bufferView" : 8,
            "componentType" : 5126,
            "count" : 2182,
            "type" : "VEC3"
        },
        {
            "bufferView" : 9,
            "componentType" : 5126,
            "count" : 2182,
            "type" : "VEC2"
        },
        {
            "bufferView" : 10,
            "componentType" : 5126,
            "count" : 2182,
            "type" : "VEC4"
        },
        {
            "bufferView" : 11,
            "componentType" : 5123,
            "count" : 2182,
            "type" : "VEC4"
        },
        {
            "bufferView" : 12,
            "componentType" : 5126,
            "count" : 2182,
            "type" : "VEC4"
        },
        {
            "bufferView" : 13,
            "componentType" : 5123,
            "count" : 3330,
            "type" : "SCALAR"
        },
        {
            "bufferView" : 14,
            "componentType" : 5126,
            "count" : 211,
            "max" : [
                3.5
            ],
            "min" : [
                0
            ],
            "type" : "SCALAR"
        },
        {
            "bufferView" : 15,
            "componentType" : 5126,
            "count" : 211,
            "type" : "VEC3"
        },
        {
            "bufferView" : 16,
            "componentType" : 5126,
            "count" : 211,
            "type" : "VEC4"
        },
        {
            "bufferView" : 17,
            "componentType" : 5126,
            "count" : 211,
            "type" : "VEC3"
        },
        {
            "bufferView" : 18,
            "componentType" : 5126,
            "count" : 211,
            "type" : "VEC3"
        },
        {
            "bufferView" : 19,
            "componentType" : 5126,
            "count" : 211,
            "type" : "VEC4"
        },
        {
            "bufferView" : 20,
            "componentType" : 5126,
            "count" : 211,
            "type" : "VEC3"
        }
    ],
    "bufferViews" : [
        {
            "buffer" : 0,
            "byteLength" : 25908,
            "byteOffset" : 0
        },
        {
            "buffer" : 0,
            "byteLength" : 25908,
            "byteOffset" : 25908
        },
        {
            "buffer" : 0,
            "byteLength" : 17272,
            "byteOffset" : 51816
        },
        {
            "buffer" : 0,
            "byteLength" : 17272,
            "byteOffset" : 69088
        },
        {
            "buffer" : 0,
            "byteLength" : 34544,
            "byteOffset" : 86360
        },
        {
            "buffer" : 0,
            "byteLength" : 6588,
            "byteOffset" : 120904
        },
        {
            "buffer" : 0,
            "byteLength" : 128,
            "byteOffset" : 127492
        },
        {
            "buffer" : 0,
            "byteLength" : 26184,
            "byteOffset" : 127620
        },
        {
            "buffer" : 0,
            "byteLength" : 26184,
            "byteOffset" : 153804
        },
        {
            "buffer" : 0,
            "byteLength" : 17456,
            "byteOffset" : 179988
        },
        {
            "buffer" : 0,
            "byteLength" : 34912,
            "byteOffset" : 197444
        },
        {
            "buffer" : 0,
            "byteLength" : 17456,
            "byteOffset" : 232356
        },
        {
            "buffer" : 0,
            "byteLength" : 34912,
            "byteOffset" : 249812
        },
        {
            "buffer" : 0,
            "byteLength" : 6660,
            "byteOffset" : 284724
        },
        {
            "buffer" : 0,
            "byteLength" : 844,
            "byteOffset" : 291384
        },
        {
            "buffer" : 0,
            "byteLength" : 2532,
            "byteOffset" : 292228
        },
        {
            "buffer" : 0,
            "byteLength" : 3376,
            "byteOffset" : 294760
        },
        {
            "buffer" : 0,
            "byteLength" : 2532,
            "byteOffset" : 298136
        },
        {
            "buffer" : 0,
            "byteLength" : 2532,
            "byteOffset" : 300668
        },
        {
            "buffer" : 0,
            "byteLength" : 3376,
            "byteOffset" : 303200
        },
        {
            "buffer" : 0,
            "byteLength" : 2532,
            "byteOffset" : 306576
        }
    ],
    "buffers" : [
        {
            "byteLength" : 309108,
            "uri" : "data:application/octet-stream;base64,"
        }
    ]
}
