{
    "asset" : {
        "generator" : "Khronos glTF Blender I/O v1.3.48",
        "version" : "2.0"
    },
    "scene" : 0,
    "scenes" : [
        {
            "name" : "Scene",
            "nodes" : [
                0
            ]
        }
    ],
    "nodes" : [
        {
            "mesh" : 0,
            "name" : "CobbleStone"
        }
    ],
    "materials" : [
        {
            "doubleSided" : true,
            "name" : "dark grey",
            "pbrMetallicRoughness" : {}
        },
        {
            "doubleSided" : true,
            "name" : "Material",
            "pbrMetallicRoughness" : {}
        }
    ],
    "meshes" : [
        {
            "name" : "Cube",
            "primitives" : [
                {
                    "attributes" : {
                        "POSITION" : 0,
                        "NORMAL" : 1,
                        "TEXCOORD_0" : 2
                    },
                    "indices" : 3,
                    "material" : 0
                },
                {
                    "attributes" : {
                        "POSITION" : 4,
                        "NORMAL" : 5,
                        "TEXCOORD_0" : 6
                    },
                    "indices" : 7,
                    "material" : 1
                }
            ]
        }
    ],
    "accessors" : [
        {
            "bufferView" : 0,
            "componentType" : 5126,
            "count" : 946,
            "max" : [
                2.5,
                0.2123279571533203,
                2.5
            ],
            "min" : [
                -2.5,
                0.012327954173088074,
                -2.5
            ],
            "type" : "VEC3"
        },
        {
            "bufferView" : 1,
            "componentType" : 5126,
            "count" : 946,
            "type" : "VEC3"
        },
        {
            "bufferView" : 2,
            "componentType" : 5126,
            "count" : 946,
            "type" : "VEC2"
        },
        {
            "bufferView" : 3,
            "componentType" : 5123,
            "count" : 1503,
            "type" : "SCALAR"
        },
        {
            "bufferView" : 4,
            "componentType" : 5126,
            "count" : 227,
            "max" : [
                2.4749999046325684,
                0.2123279571533203,
                2.5
            ],
            "min" : [
                -2.4749999046325684,
                0.18767204880714417,
                -2.5
            ],
            "type" : "VEC3"
        },
        {
            "bufferView" : 5,
            "componentType" : 5126,
            "count" : 227,
            "type" : "VEC3"
        },
        {
            "bufferView" : 6,
            "componentType" : 5126,
            "count" : 227,
            "type" : "VEC2"
        },
        {
            "bufferView" : 7,
            "componentType" : 5123,
            "count" : 471,
            "type" : "SCALAR"
        }
    ],
    "bufferViews" : [
        {
            "buffer" : 0,
            "byteLength" : 11352,
            "byteOffset" : 0
        },
        {
            "buffer" : 0,
            "byteLength" : 11352,
            "byteOffset" : 11352
        },
        {
            "buffer" : 0,
            "byteLength" : 7568,
            "byteOffset" : 22704
        },
        {
            "buffer" : 0,
            "byteLength" : 3006,
            "byteOffset" : 30272
        },
        {
            "buffer" : 0,
            "byteLength" : 2724,
            "byteOffset" : 33280
        },
        {
            "buffer" : 0,
            "byteLength" : 2724,
            "byteOffset" : 36004
        },
        {
            "buffer" : 0,
            "byteLength" : 1816,
            "byteOffset" : 38728
        },
        {
            "buffer" : 0,
            "byteLength" : 942,
            "byteOffset" : 40544
        }
    ],
    "buffers" : [
        {
            "byteLength" : 41488,
            "uri" : "data:application/octet-stream;base64,"
        }
    ]
}
