{
    "asset" : {
        "generator" : "Khronos glTF Blender I/O v1.3.48",
        "version" : "2.0"
    },
    "scene" : 0,
    "scenes" : [
        {
            "name" : "Scene",
            "nodes" : [
                0
            ]
        }
    ],
    "nodes" : [
        {
            "mesh" : 0,
            "name" : "GroundWallWindow2"
        }
    ],
    "materials" : [
        {
            "doubleSided" : true,
            "name" : "grey",
            "pbrMetallicRoughness" : {}
        },
        {
            "doubleSided" : true,
            "name" : "white",
            "pbrMetallicRoughness" : {}
        },
        {
            "doubleSided" : true,
            "name" : "lighter grey",
            "pbrMetallicRoughness" : {}
        },
        {
            "doubleSided" : true,
            "name" : "wood",
            "pbrMetallicRoughness" : {}
        }
    ],
    "meshes" : [
        {
            "name" : "Cube.001",
            "primitives" : [
                {
                    "attributes" : {
                        "POSITION" : 0,
                        "NORMAL" : 1,
                        "TEXCOORD_0" : 2
                    },
                    "indices" : 3,
                    "material" : 0
                },
                {
                    "attributes" : {
                        "POSITION" : 4,
                        "NORMAL" : 5,
                        "TEXCOORD_0" : 6
                    },
                    "indices" : 7,
                    "material" : 1
                },
                {
                    "attributes" : {
                        "POSITION" : 8,
                        "NORMAL" : 9,
                        "TEXCOORD_0" : 10
                    },
                    "indices" : 11,
                    "material" : 2
                },
                {
                    "attributes" : {
                        "POSITION" : 12,
                        "NORMAL" : 13,
                        "TEXCOORD_0" : 14
                    },
                    "indices" : 15,
                    "material" : 3
                }
            ]
        }
    ],
    "accessors" : [
        {
            "bufferView" : 0,
            "componentType" : 5126,
            "count" : 1220,
            "max" : [
                2.499999523162842,
                1.6071425676345825,
                -2.1230075359344482
            ],
            "min" : [
                -2.499999523162842,
                -4.1489454360998934e-07,
                -2.5
            ],
            "type" : "VEC3"
        },
        {
            "bufferView" : 1,
            "componentType" : 5126,
            "count" : 1220,
            "type" : "VEC3"
        },
        {
            "bufferView" : 2,
            "componentType" : 5126,
            "count" : 1220,
            "type" : "VEC2"
        },
        {
            "bufferView" : 3,
            "componentType" : 5123,
            "count" : 1881,
            "type" : "SCALAR"
        },
        {
            "bufferView" : 4,
            "componentType" : 5126,
            "count" : 223,
            "max" : [
                2.499999523162842,
                5,
                -2.2999982833862305
            ],
            "min" : [
                -2.499999523162842,
                1.607142448425293,
                -2.499999523162842
            ],
            "type" : "VEC3"
        },
        {
            "bufferView" : 5,
            "componentType" : 5126,
            "count" : 223,
            "type" : "VEC3"
        },
        {
            "bufferView" : 6,
            "componentType" : 5126,
            "count" : 223,
            "type" : "VEC2"
        },
        {
            "bufferView" : 7,
            "componentType" : 5123,
            "count" : 387,
            "type" : "SCALAR"
        },
        {
            "bufferView" : 8,
            "componentType" : 5126,
            "count" : 244,
            "max" : [
                2.3461380004882812,
                1.5821425914764404,
                -2.257441282272339
            ],
            "min" : [
                -2.3461380004882812,
                0.02499966509640217,
                -2.299999713897705
            ],
            "type" : "VEC3"
        },
        {
            "bufferView" : 9,
            "componentType" : 5126,
            "count" : 244,
            "type" : "VEC3"
        },
        {
            "bufferView" : 10,
            "componentType" : 5126,
            "count" : 244,
            "type" : "VEC2"
        },
        {
            "bufferView" : 11,
            "componentType" : 5123,
            "count" : 510,
            "type" : "SCALAR"
        },
        {
            "bufferView" : 12,
            "componentType" : 5126,
            "count" : 462,
            "max" : [
                2.499999523162842,
                5,
                -2.1230075359344482
            ],
            "min" : [
                -2.499999523162842,
                -4.1489454360998934e-07,
                -2.5526280403137207
            ],
            "type" : "VEC3"
        },
        {
            "bufferView" : 13,
            "componentType" : 5126,
            "count" : 462,
            "type" : "VEC3"
        },
        {
            "bufferView" : 14,
            "componentType" : 5126,
            "count" : 462,
            "type" : "VEC2"
        },
        {
            "bufferView" : 15,
            "componentType" : 5123,
            "count" : 738,
            "type" : "SCALAR"
        }
    ],
    "bufferViews" : [
        {
            "buffer" : 0,
            "byteLength" : 14640,
            "byteOffset" : 0
        },
        {
            "buffer" : 0,
            "byteLength" : 14640,
            "byteOffset" : 14640
        },
        {
            "buffer" : 0,
            "byteLength" : 9760,
            "byteOffset" : 29280
        },
        {
            "buffer" : 0,
            "byteLength" : 3762,
            "byteOffset" : 39040
        },
        {
            "buffer" : 0,
            "byteLength" : 2676,
            "byteOffset" : 42804
        },
        {
            "buffer" : 0,
            "byteLength" : 2676,
            "byteOffset" : 45480
        },
        {
            "buffer" : 0,
            "byteLength" : 1784,
            "byteOffset" : 48156
        },
        {
            "buffer" : 0,
            "byteLength" : 774,
            "byteOffset" : 49940
        },
        {
            "buffer" : 0,
            "byteLength" : 2928,
            "byteOffset" : 50716
        },
        {
            "buffer" : 0,
            "byteLength" : 2928,
            "byteOffset" : 53644
        },
        {
            "buffer" : 0,
            "byteLength" : 1952,
            "byteOffset" : 56572
        },
        {
            "buffer" : 0,
            "byteLength" : 1020,
            "byteOffset" : 58524
        },
        {
            "buffer" : 0,
            "byteLength" : 5544,
            "byteOffset" : 59544
        },
        {
            "buffer" : 0,
            "byteLength" : 5544,
            "byteOffset" : 65088
        },
        {
            "buffer" : 0,
            "byteLength" : 3696,
            "byteOffset" : 70632
        },
        {
            "buffer" : 0,
            "byteLength" : 1476,
            "byteOffset" : 74328
        }
    ],
    "buffers" : [
        {
            "byteLength" : 75804,
            "uri" : "data:application/octet-stream;base64,"
        }
    ]
}
