{
    "asset" : {
        "generator" : "Khronos glTF Blender I/O v1.3.48",
        "version" : "2.0"
    },
    "scene" : 0,
    "scenes" : [
        {
            "name" : "Scene",
            "nodes" : [
                0
            ]
        }
    ],
    "nodes" : [
        {
            "mesh" : 0,
            "name" : "GroundWallWindow"
        }
    ],
    "materials" : [
        {
            "doubleSided" : true,
            "name" : "grey",
            "pbrMetallicRoughness" : {}
        },
        {
            "doubleSided" : true,
            "name" : "white",
            "pbrMetallicRoughness" : {}
        },
        {
            "doubleSided" : true,
            "name" : "lighter grey",
            "pbrMetallicRoughness" : {}
        },
        {
            "doubleSided" : true,
            "name" : "wood",
            "pbrMetallicRoughness" : {}
        }
    ],
    "meshes" : [
        {
            "name" : "Cube.001",
            "primitives" : [
                {
                    "attributes" : {
                        "POSITION" : 0,
                        "NORMAL" : 1,
                        "TEXCOORD_0" : 2
                    },
                    "indices" : 3,
                    "material" : 0
                },
                {
                    "attributes" : {
                        "POSITION" : 4,
                        "NORMAL" : 5,
                        "TEXCOORD_0" : 6
                    },
                    "indices" : 7,
                    "material" : 1
                },
                {
                    "attributes" : {
                        "POSITION" : 8,
                        "NORMAL" : 9,
                        "TEXCOORD_0" : 10
                    },
                    "indices" : 11,
                    "material" : 2
                },
                {
                    "attributes" : {
                        "POSITION" : 12,
                        "NORMAL" : 13,
                        "TEXCOORD_0" : 14
                    },
                    "indices" : 15,
                    "material" : 3
                }
            ]
        }
    ],
    "accessors" : [
        {
            "bufferView" : 0,
            "componentType" : 5126,
            "count" : 1250,
            "max" : [
                2.499999523162842,
                1.8227901458740234,
                -2.1230075359344482
            ],
            "min" : [
                -2.499999523162842,
                -4.1489454360998934e-07,
                -2.5
            ],
            "type" : "VEC3"
        },
        {
            "bufferView" : 1,
            "componentType" : 5126,
            "count" : 1250,
            "type" : "VEC3"
        },
        {
            "bufferView" : 2,
            "componentType" : 5126,
            "count" : 1250,
            "type" : "VEC2"
        },
        {
            "bufferView" : 3,
            "componentType" : 5123,
            "count" : 1926,
            "type" : "SCALAR"
        },
        {
            "bufferView" : 4,
            "componentType" : 5126,
            "count" : 169,
            "max" : [
                2.499999523162842,
                5,
                -2.288940668106079
            ],
            "min" : [
                -2.499999523162842,
                1.607142448425293,
                -2.5110573768615723
            ],
            "type" : "VEC3"
        },
        {
            "bufferView" : 5,
            "componentType" : 5126,
            "count" : 169,
            "type" : "VEC3"
        },
        {
            "bufferView" : 6,
            "componentType" : 5126,
            "count" : 169,
            "type" : "VEC2"
        },
        {
            "bufferView" : 7,
            "componentType" : 5123,
            "count" : 303,
            "type" : "SCALAR"
        },
        {
            "bufferView" : 8,
            "componentType" : 5126,
            "count" : 253,
            "max" : [
                2.3461380004882812,
                1.5821425914764404,
                -2.257441282272339
            ],
            "min" : [
                -2.3461380004882812,
                0.02499966509640217,
                -2.299999952316284
            ],
            "type" : "VEC3"
        },
        {
            "bufferView" : 9,
            "componentType" : 5126,
            "count" : 253,
            "type" : "VEC3"
        },
        {
            "bufferView" : 10,
            "componentType" : 5126,
            "count" : 253,
            "type" : "VEC2"
        },
        {
            "bufferView" : 11,
            "componentType" : 5123,
            "count" : 525,
            "type" : "SCALAR"
        },
        {
            "bufferView" : 12,
            "componentType" : 5126,
            "count" : 384,
            "max" : [
                2.499999523162842,
                5,
                -2.1230075359344482
            ],
            "min" : [
                -2.499999523162842,
                -4.1489454360998934e-07,
                -2.5285260677337646
            ],
            "type" : "VEC3"
        },
        {
            "bufferView" : 13,
            "componentType" : 5126,
            "count" : 384,
            "type" : "VEC3"
        },
        {
            "bufferView" : 14,
            "componentType" : 5126,
            "count" : 384,
            "type" : "VEC2"
        },
        {
            "bufferView" : 15,
            "componentType" : 5123,
            "count" : 612,
            "type" : "SCALAR"
        }
    ],
    "bufferViews" : [
        {
            "buffer" : 0,
            "byteLength" : 15000,
            "byteOffset" : 0
        },
        {
            "buffer" : 0,
            "byteLength" : 15000,
            "byteOffset" : 15000
        },
        {
            "buffer" : 0,
            "byteLength" : 10000,
            "byteOffset" : 30000
        },
        {
            "buffer" : 0,
            "byteLength" : 3852,
            "byteOffset" : 40000
        },
        {
            "buffer" : 0,
            "byteLength" : 2028,
            "byteOffset" : 43852
        },
        {
            "buffer" : 0,
            "byteLength" : 2028,
            "byteOffset" : 45880
        },
        {
            "buffer" : 0,
            "byteLength" : 1352,
            "byteOffset" : 47908
        },
        {
            "buffer" : 0,
            "byteLength" : 606,
            "byteOffset" : 49260
        },
        {
            "buffer" : 0,
            "byteLength" : 3036,
            "byteOffset" : 49868
        },
        {
            "buffer" : 0,
            "byteLength" : 3036,
            "byteOffset" : 52904
        },
        {
            "buffer" : 0,
            "byteLength" : 2024,
            "byteOffset" : 55940
        },
        {
            "buffer" : 0,
            "byteLength" : 1050,
            "byteOffset" : 57964
        },
        {
            "buffer" : 0,
            "byteLength" : 4608,
            "byteOffset" : 59016
        },
        {
            "buffer" : 0,
            "byteLength" : 4608,
            "byteOffset" : 63624
        },
        {
            "buffer" : 0,
            "byteLength" : 3072,
            "byteOffset" : 68232
        },
        {
            "buffer" : 0,
            "byteLength" : 1224,
            "byteOffset" : 71304
        }
    ],
    "buffers" : [
        {
            "byteLength" : 72528,
            "uri" : "data:application/octet-stream;base64,"
        }
    ]
}
