{
    "asset" : {
        "generator" : "Khronos glTF Blender I/O v1.3.48",
        "version" : "2.0"
    },
    "scene" : 0,
    "scenes" : [
        {
            "name" : "Scene",
            "nodes" : [
                0
            ]
        }
    ],
    "nodes" : [
        {
            "mesh" : 0,
            "name" : "GroundWallDoor"
        }
    ],
    "materials" : [
        {
            "doubleSided" : true,
            "name" : "wood",
            "pbrMetallicRoughness" : {}
        },
        {
            "doubleSided" : true,
            "name" : "grey",
            "pbrMetallicRoughness" : {}
        },
        {
            "doubleSided" : true,
            "name" : "white",
            "pbrMetallicRoughness" : {}
        },
        {
            "doubleSided" : true,
            "name" : "lighter grey",
            "pbrMetallicRoughness" : {}
        },
        {
            "doubleSided" : true,
            "name" : "black",
            "pbrMetallicRoughness" : {}
        }
    ],
    "meshes" : [
        {
            "name" : "Cube.002",
            "primitives" : [
                {
                    "attributes" : {
                        "POSITION" : 0,
                        "NORMAL" : 1,
                        "TEXCOORD_0" : 2
                    },
                    "indices" : 3,
                    "material" : 0
                },
                {
                    "attributes" : {
                        "POSITION" : 4,
                        "NORMAL" : 5,
                        "TEXCOORD_0" : 6
                    },
                    "indices" : 7,
                    "material" : 1
                },
                {
                    "attributes" : {
                        "POSITION" : 8,
                        "NORMAL" : 9,
                        "TEXCOORD_0" : 10
                    },
                    "indices" : 11,
                    "material" : 2
                },
                {
                    "attributes" : {
                        "POSITION" : 12,
                        "NORMAL" : 13,
                        "TEXCOORD_0" : 14
                    },
                    "indices" : 15,
                    "material" : 3
                },
                {
                    "attributes" : {
                        "POSITION" : 16,
                        "NORMAL" : 17,
                        "TEXCOORD_0" : 18
                    },
                    "indices" : 19,
                    "material" : 4
                }
            ]
        }
    ],
    "accessors" : [
        {
            "bufferView" : 0,
            "componentType" : 5126,
            "count" : 346,
            "max" : [
                2.499999523162842,
                5,
                -2.123007297515869
            ],
            "min" : [
                -2.499999523162842,
                -4.1489465729682706e-07,
                -2.5760302543640137
            ],
            "type" : "VEC3"
        },
        {
            "bufferView" : 1,
            "componentType" : 5126,
            "count" : 346,
            "type" : "VEC3"
        },
        {
            "bufferView" : 2,
            "componentType" : 5126,
            "count" : 346,
            "type" : "VEC2"
        },
        {
            "bufferView" : 3,
            "componentType" : 5123,
            "count" : 594,
            "type" : "SCALAR"
        },
        {
            "bufferView" : 4,
            "componentType" : 5126,
            "count" : 638,
            "max" : [
                2.499999523162842,
                1.6071425676345825,
                -2.123007297515869
            ],
            "min" : [
                -2.499999523162842,
                -4.1489465729682706e-07,
                -2.5
            ],
            "type" : "VEC3"
        },
        {
            "bufferView" : 5,
            "componentType" : 5126,
            "count" : 638,
            "type" : "VEC3"
        },
        {
            "bufferView" : 6,
            "componentType" : 5126,
            "count" : 638,
            "type" : "VEC2"
        },
        {
            "bufferView" : 7,
            "componentType" : 5123,
            "count" : 1095,
            "type" : "SCALAR"
        },
        {
            "bufferView" : 8,
            "componentType" : 5126,
            "count" : 192,
            "max" : [
                2.499999523162842,
                5,
                -2.267446756362915
            ],
            "min" : [
                -2.499999523162842,
                -3.306074063402775e-07,
                -2.5
            ],
            "type" : "VEC3"
        },
        {
            "bufferView" : 9,
            "componentType" : 5126,
            "count" : 192,
            "type" : "VEC3"
        },
        {
            "bufferView" : 10,
            "componentType" : 5126,
            "count" : 192,
            "type" : "VEC2"
        },
        {
            "bufferView" : 11,
            "componentType" : 5123,
            "count" : 390,
            "type" : "SCALAR"
        },
        {
            "bufferView" : 12,
            "componentType" : 5126,
            "count" : 101,
            "max" : [
                2.3461382389068604,
                1.5821424722671509,
                -2.257441282272339
            ],
            "min" : [
                -2.3461382389068604,
                0.02499966509640217,
                -2.299999952316284
            ],
            "type" : "VEC3"
        },
        {
            "bufferView" : 13,
            "componentType" : 5126,
            "count" : 101,
            "type" : "VEC3"
        },
        {
            "bufferView" : 14,
            "componentType" : 5126,
            "count" : 101,
            "type" : "VEC2"
        },
        {
            "bufferView" : 15,
            "componentType" : 5123,
            "count" : 207,
            "type" : "SCALAR"
        },
        {
            "bufferView" : 16,
            "componentType" : 5126,
            "count" : 84,
            "max" : [
                -1.034128189086914,
                2.238797187805176,
                -2.04837703704834
            ],
            "min" : [
                -1.261303424835205,
                1.9764779806137085,
                -2.2937660217285156
            ],
            "type" : "VEC3"
        },
        {
            "bufferView" : 17,
            "componentType" : 5126,
            "count" : 84,
            "type" : "VEC3"
        },
        {
            "bufferView" : 18,
            "componentType" : 5126,
            "count" : 84,
            "type" : "VEC2"
        },
        {
            "bufferView" : 19,
            "componentType" : 5123,
            "count" : 132,
            "type" : "SCALAR"
        }
    ],
    "bufferViews" : [
        {
            "buffer" : 0,
            "byteLength" : 4152,
            "byteOffset" : 0
        },
        {
            "buffer" : 0,
            "byteLength" : 4152,
            "byteOffset" : 4152
        },
        {
            "buffer" : 0,
            "byteLength" : 2768,
            "byteOffset" : 8304
        },
        {
            "buffer" : 0,
            "byteLength" : 1188,
            "byteOffset" : 11072
        },
        {
            "buffer" : 0,
            "byteLength" : 7656,
            "byteOffset" : 12260
        },
        {
            "buffer" : 0,
            "byteLength" : 7656,
            "byteOffset" : 19916
        },
        {
            "buffer" : 0,
            "byteLength" : 5104,
            "byteOffset" : 27572
        },
        {
            "buffer" : 0,
            "byteLength" : 2190,
            "byteOffset" : 32676
        },
        {
            "buffer" : 0,
            "byteLength" : 2304,
            "byteOffset" : 34868
        },
        {
            "buffer" : 0,
            "byteLength" : 2304,
            "byteOffset" : 37172
        },
        {
            "buffer" : 0,
            "byteLength" : 1536,
            "byteOffset" : 39476
        },
        {
            "buffer" : 0,
            "byteLength" : 780,
            "byteOffset" : 41012
        },
        {
            "buffer" : 0,
            "byteLength" : 1212,
            "byteOffset" : 41792
        },
        {
            "buffer" : 0,
            "byteLength" : 1212,
            "byteOffset" : 43004
        },
        {
            "buffer" : 0,
            "byteLength" : 808,
            "byteOffset" : 44216
        },
        {
            "buffer" : 0,
            "byteLength" : 414,
            "byteOffset" : 45024
        },
        {
            "buffer" : 0,
            "byteLength" : 1008,
            "byteOffset" : 45440
        },
        {
            "buffer" : 0,
            "byteLength" : 1008,
            "byteOffset" : 46448
        },
        {
            "buffer" : 0,
            "byteLength" : 672,
            "byteOffset" : 47456
        },
        {
            "buffer" : 0,
            "byteLength" : 264,
            "byteOffset" : 48128
        }
    ],
    "buffers" : [
        {
            "byteLength" : 48392,
            "uri" : "data:application/octet-stream;base64,"
        }
    ]
}
