{
    "asset" : {
        "generator" : "Khronos glTF Blender I/O v1.3.48",
        "version" : "2.0"
    },
    "scene" : 0,
    "scenes" : [
        {
            "name" : "Scene",
            "nodes" : [
                0
            ]
        }
    ],
    "nodes" : [
        {
            "mesh" : 0,
            "name" : "AnchorCrates",
            "rotation" : [
                0.6223595142364502,
                0,
                0,
                0.7827316522598267
            ],
            "scale" : [
                0.41453254222869873,
                0.41453254222869873,
                0.41453254222869873
            ]
        }
    ],
    "materials" : [
        {
            "doubleSided" : true,
            "name" : "black",
            "pbrMetallicRoughness" : {}
        },
        {
            "doubleSided" : true,
            "name" : "metal",
            "pbrMetallicRoughness" : {}
        },
        {
            "doubleSided" : true,
            "name" : "wood",
            "pbrMetallicRoughness" : {}
        }
    ],
    "meshes" : [
        {
            "name" : "Plane",
            "primitives" : [
                {
                    "attributes" : {
                        "POSITION" : 0,
                        "NORMAL" : 1,
                        "TEXCOORD_0" : 2
                    },
                    "indices" : 3,
                    "material" : 0
                },
                {
                    "attributes" : {
                        "POSITION" : 4,
                        "NORMAL" : 5,
                        "TEXCOORD_0" : 6
                    },
                    "indices" : 7,
                    "material" : 1
                },
                {
                    "attributes" : {
                        "POSITION" : 8,
                        "NORMAL" : 9,
                        "TEXCOORD_0" : 10
                    },
                    "indices" : 11,
                    "material" : 2
                }
            ]
        }
    ],
    "accessors" : [
        {
            "bufferView" : 0,
            "componentType" : 5126,
            "count" : 394,
            "max" : [
                1.8143728971481323,
                2.134772300720215,
                0.44687768816947937
            ],
            "min" : [
                -1.8143728971481323,
                1.9485431909561157,
                -3.523946762084961
            ],
            "type" : "VEC3"
        },
        {
            "bufferView" : 1,
            "componentType" : 5126,
            "count" : 394,
            "type" : "VEC3"
        },
        {
            "bufferView" : 2,
            "componentType" : 5126,
            "count" : 394,
            "type" : "VEC2"
        },
        {
            "bufferView" : 3,
            "componentType" : 5123,
            "count" : 696,
            "type" : "SCALAR"
        },
        {
            "bufferView" : 4,
            "componentType" : 5126,
            "count" : 964,
            "max" : [
                1.4371583461761475,
                2.3763232231140137,
                0.27179694175720215
            ],
            "min" : [
                -1.4751558303833008,
                -1.1751561164855957,
                -5.058718204498291
            ],
            "type" : "VEC3"
        },
        {
            "bufferView" : 5,
            "componentType" : 5126,
            "count" : 964,
            "type" : "VEC3"
        },
        {
            "bufferView" : 6,
            "componentType" : 5126,
            "count" : 964,
            "type" : "VEC2"
        },
        {
            "bufferView" : 7,
            "componentType" : 5123,
            "count" : 1500,
            "type" : "SCALAR"
        },
        {
            "bufferView" : 8,
            "componentType" : 5126,
            "count" : 176,
            "max" : [
                1.386802315711975,
                2.261215925216675,
                0.22209277749061584
            ],
            "min" : [
                -1.403727412223816,
                -1.1081881523132324,
                -4.948115825653076
            ],
            "type" : "VEC3"
        },
        {
            "bufferView" : 9,
            "componentType" : 5126,
            "count" : 176,
            "type" : "VEC3"
        },
        {
            "bufferView" : 10,
            "componentType" : 5126,
            "count" : 176,
            "type" : "VEC2"
        },
        {
            "bufferView" : 11,
            "componentType" : 5123,
            "count" : 300,
            "type" : "SCALAR"
        }
    ],
    "bufferViews" : [
        {
            "buffer" : 0,
            "byteLength" : 4728,
            "byteOffset" : 0
        },
        {
            "buffer" : 0,
            "byteLength" : 4728,
            "byteOffset" : 4728
        },
        {
            "buffer" : 0,
            "byteLength" : 3152,
            "byteOffset" : 9456
        },
        {
            "buffer" : 0,
            "byteLength" : 1392,
            "byteOffset" : 12608
        },
        {
            "buffer" : 0,
            "byteLength" : 11568,
            "byteOffset" : 14000
        },
        {
            "buffer" : 0,
            "byteLength" : 11568,
            "byteOffset" : 25568
        },
        {
            "buffer" : 0,
            "byteLength" : 7712,
            "byteOffset" : 37136
        },
        {
            "buffer" : 0,
            "byteLength" : 3000,
            "byteOffset" : 44848
        },
        {
            "buffer" : 0,
            "byteLength" : 2112,
            "byteOffset" : 47848
        },
        {
            "buffer" : 0,
            "byteLength" : 2112,
            "byteOffset" : 49960
        },
        {
            "buffer" : 0,
            "byteLength" : 1408,
            "byteOffset" : 52072
        },
        {
            "buffer" : 0,
            "byteLength" : 600,
            "byteOffset" : 53480
        }
    ],
    "buffers" : [
        {
            "byteLength" : 54080,
            "uri" : "data:application/octet-stream;base64,"
        }
    ]
}
