{
    "asset" : {
        "generator" : "Khronos glTF Blender I/O v1.3.48",
        "version" : "2.0"
    },
    "scene" : 0,
    "scenes" : [
        {
            "name" : "Scene",
            "nodes" : [
                0
            ]
        }
    ],
    "nodes" : [
        {
            "mesh" : 0,
            "name" : "FloorCobbleMiddle"
        }
    ],
    "materials" : [
        {
            "doubleSided" : true,
            "name" : "dark grey",
            "pbrMetallicRoughness" : {}
        },
        {
            "doubleSided" : true,
            "name" : "light grey",
            "pbrMetallicRoughness" : {}
        }
    ],
    "meshes" : [
        {
            "name" : "Cube.006",
            "primitives" : [
                {
                    "attributes" : {
                        "POSITION" : 0,
                        "NORMAL" : 1,
                        "TEXCOORD_0" : 2
                    },
                    "indices" : 3,
                    "material" : 0
                },
                {
                    "attributes" : {
                        "POSITION" : 4,
                        "NORMAL" : 5,
                        "TEXCOORD_0" : 6
                    },
                    "indices" : 7,
                    "material" : 1
                }
            ]
        }
    ],
    "accessors" : [
        {
            "bufferView" : 0,
            "componentType" : 5126,
            "count" : 1612,
            "max" : [
                2.5001380443573,
                0.21553409099578857,
                2.5
            ],
            "min" : [
                -2.500000238418579,
                0,
                -2.5040555000305176
            ],
            "type" : "VEC3"
        },
        {
            "bufferView" : 1,
            "componentType" : 5126,
            "count" : 1612,
            "type" : "VEC3"
        },
        {
            "bufferView" : 2,
            "componentType" : 5126,
            "count" : 1612,
            "type" : "VEC2"
        },
        {
            "bufferView" : 3,
            "componentType" : 5123,
            "count" : 2415,
            "type" : "SCALAR"
        },
        {
            "bufferView" : 4,
            "componentType" : 5126,
            "count" : 434,
            "max" : [
                2.5001380443573,
                0.21553409099578857,
                2.4998021125793457
            ],
            "min" : [
                -2.500000238418579,
                0.20000000298023224,
                -2.5
            ],
            "type" : "VEC3"
        },
        {
            "bufferView" : 5,
            "componentType" : 5126,
            "count" : 434,
            "type" : "VEC3"
        },
        {
            "bufferView" : 6,
            "componentType" : 5126,
            "count" : 434,
            "type" : "VEC2"
        },
        {
            "bufferView" : 7,
            "componentType" : 5123,
            "count" : 762,
            "type" : "SCALAR"
        }
    ],
    "bufferViews" : [
        {
            "buffer" : 0,
            "byteLength" : 19344,
            "byteOffset" : 0
        },
        {
            "buffer" : 0,
            "byteLength" : 19344,
            "byteOffset" : 19344
        },
        {
            "buffer" : 0,
            "byteLength" : 12896,
            "byteOffset" : 38688
        },
        {
            "buffer" : 0,
            "byteLength" : 4830,
            "byteOffset" : 51584
        },
        {
            "buffer" : 0,
            "byteLength" : 5208,
            "byteOffset" : 56416
        },
        {
            "buffer" : 0,
            "byteLength" : 5208,
            "byteOffset" : 61624
        },
        {
            "buffer" : 0,
            "byteLength" : 3472,
            "byteOffset" : 66832
        },
        {
            "buffer" : 0,
            "byteLength" : 1524,
            "byteOffset" : 70304
        }
    ],
    "buffers" : [
        {
            "byteLength" : 71828,
            "uri" : "data:application/octet-stream;base64,"
        }
    ]
}
