{
    "asset" : {
        "generator" : "Khronos glTF Blender I/O v1.3.48",
        "version" : "2.0"
    },
    "scene" : 0,
    "scenes" : [
        {
            "name" : "Scene",
            "nodes" : [
                0
            ]
        }
    ],
    "nodes" : [
        {
            "mesh" : 0,
            "name" : "roofing",
            "scale" : [
                1,
                1.051010012626648,
                1
            ]
        }
    ],
    "materials" : [
        {
            "doubleSided" : true,
            "name" : "light brown",
            "pbrMetallicRoughness" : {}
        },
        {
            "doubleSided" : true,
            "name" : "dark brown",
            "pbrMetallicRoughness" : {}
        }
    ],
    "meshes" : [
        {
            "name" : "Cube",
            "primitives" : [
                {
                    "attributes" : {
                        "POSITION" : 0,
                        "NORMAL" : 1,
                        "TEXCOORD_0" : 2
                    },
                    "indices" : 3,
                    "material" : 0
                },
                {
                    "attributes" : {
                        "POSITION" : 4,
                        "NORMAL" : 5,
                        "TEXCOORD_0" : 6
                    },
                    "indices" : 7,
                    "material" : 1
                }
            ]
        }
    ],
    "accessors" : [
        {
            "bufferView" : 0,
            "componentType" : 5126,
            "count" : 175,
            "max" : [
                2.5,
                5,
                2.5
            ],
            "min" : [
                -2.5,
                0,
                -2.5
            ],
            "type" : "VEC3"
        },
        {
            "bufferView" : 1,
            "componentType" : 5126,
            "count" : 175,
            "type" : "VEC3"
        },
        {
            "bufferView" : 2,
            "componentType" : 5126,
            "count" : 175,
            "type" : "VEC2"
        },
        {
            "bufferView" : 3,
            "componentType" : 5123,
            "count" : 312,
            "type" : "SCALAR"
        },
        {
            "bufferView" : 4,
            "componentType" : 5126,
            "count" : 28,
            "max" : [
                2.5,
                4.806818008422852,
                1.6080918312072754
            ],
            "min" : [
                -2.5,
                0.6609728336334229,
                -1.6080918312072754
            ],
            "type" : "VEC3"
        },
        {
            "bufferView" : 5,
            "componentType" : 5126,
            "count" : 28,
            "type" : "VEC3"
        },
        {
            "bufferView" : 6,
            "componentType" : 5126,
            "count" : 28,
            "type" : "VEC2"
        },
        {
            "bufferView" : 7,
            "componentType" : 5123,
            "count" : 36,
            "type" : "SCALAR"
        }
    ],
    "bufferViews" : [
        {
            "buffer" : 0,
            "byteLength" : 2100,
            "byteOffset" : 0
        },
        {
            "buffer" : 0,
            "byteLength" : 2100,
            "byteOffset" : 2100
        },
        {
            "buffer" : 0,
            "byteLength" : 1400,
            "byteOffset" : 4200
        },
        {
            "buffer" : 0,
            "byteLength" : 624,
            "byteOffset" : 5600
        },
        {
            "buffer" : 0,
            "byteLength" : 336,
            "byteOffset" : 6224
        },
        {
            "buffer" : 0,
            "byteLength" : 336,
            "byteOffset" : 6560
        },
        {
            "buffer" : 0,
            "byteLength" : 224,
            "byteOffset" : 6896
        },
        {
            "buffer" : 0,
            "byteLength" : 72,
            "byteOffset" : 7120
        }
    ],
    "buffers" : [
        {
            "byteLength" : 7192,
            "uri" : "data:application/octet-stream;base64,"
        }
    ]
}
