{
    "asset" : {
        "generator" : "Khronos glTF Blender I/O v1.3.48",
        "version" : "2.0"
    },
    "scene" : 0,
    "scenes" : [
        {
            "name" : "Scene",
            "nodes" : [
                0
            ]
        }
    ],
    "nodes" : [
        {
            "mesh" : 0,
            "name" : "Bed"
        }
    ],
    "materials" : [
        {
            "doubleSided" : true,
            "name" : "wood",
            "pbrMetallicRoughness" : {}
        },
        {
            "doubleSided" : true,
            "name" : "white",
            "pbrMetallicRoughness" : {}
        },
        {
            "doubleSided" : true,
            "name" : "Material",
            "pbrMetallicRoughness" : {}
        }
    ],
    "meshes" : [
        {
            "name" : "Cube.001",
            "primitives" : [
                {
                    "attributes" : {
                        "POSITION" : 0,
                        "NORMAL" : 1,
                        "TEXCOORD_0" : 2
                    },
                    "indices" : 3,
                    "material" : 0
                },
                {
                    "attributes" : {
                        "POSITION" : 4,
                        "NORMAL" : 5,
                        "TEXCOORD_0" : 6
                    },
                    "indices" : 7,
                    "material" : 1
                },
                {
                    "attributes" : {
                        "POSITION" : 8,
                        "NORMAL" : 9,
                        "TEXCOORD_0" : 10
                    },
                    "indices" : 11,
                    "material" : 2
                }
            ]
        }
    ],
    "accessors" : [
        {
            "bufferView" : 0,
            "componentType" : 5126,
            "count" : 187,
            "max" : [
                1.761953353881836,
                2.202155590057373,
                3.136000633239746
            ],
            "min" : [
                -1.761953353881836,
                -0.05600595474243164,
                -3.437731981277466
            ],
            "type" : "VEC3"
        },
        {
            "bufferView" : 1,
            "componentType" : 5126,
            "count" : 187,
            "type" : "VEC3"
        },
        {
            "bufferView" : 2,
            "componentType" : 5126,
            "count" : 187,
            "type" : "VEC2"
        },
        {
            "bufferView" : 3,
            "componentType" : 5123,
            "count" : 309,
            "type" : "SCALAR"
        },
        {
            "bufferView" : 4,
            "componentType" : 5126,
            "count" : 176,
            "max" : [
                1.7587658166885376,
                1.832953929901123,
                -1.3670064210891724
            ],
            "min" : [
                -1.7587658166885376,
                1.0025227069854736,
                -3.339816093444824
            ],
            "type" : "VEC3"
        },
        {
            "bufferView" : 5,
            "componentType" : 5126,
            "count" : 176,
            "type" : "VEC3"
        },
        {
            "bufferView" : 6,
            "componentType" : 5126,
            "count" : 176,
            "type" : "VEC2"
        },
        {
            "bufferView" : 7,
            "componentType" : 5123,
            "count" : 252,
            "type" : "SCALAR"
        },
        {
            "bufferView" : 8,
            "componentType" : 5126,
            "count" : 62,
            "max" : [
                1.7587658166885376,
                1.5688191652297974,
                3.098196506500244
            ],
            "min" : [
                -1.7587658166885376,
                1.216884732246399,
                -1.367006778717041
            ],
            "type" : "VEC3"
        },
        {
            "bufferView" : 9,
            "componentType" : 5126,
            "count" : 62,
            "type" : "VEC3"
        },
        {
            "bufferView" : 10,
            "componentType" : 5126,
            "count" : 62,
            "type" : "VEC2"
        },
        {
            "bufferView" : 11,
            "componentType" : 5123,
            "count" : 90,
            "type" : "SCALAR"
        }
    ],
    "bufferViews" : [
        {
            "buffer" : 0,
            "byteLength" : 2244,
            "byteOffset" : 0
        },
        {
            "buffer" : 0,
            "byteLength" : 2244,
            "byteOffset" : 2244
        },
        {
            "buffer" : 0,
            "byteLength" : 1496,
            "byteOffset" : 4488
        },
        {
            "buffer" : 0,
            "byteLength" : 618,
            "byteOffset" : 5984
        },
        {
            "buffer" : 0,
            "byteLength" : 2112,
            "byteOffset" : 6604
        },
        {
            "buffer" : 0,
            "byteLength" : 2112,
            "byteOffset" : 8716
        },
        {
            "buffer" : 0,
            "byteLength" : 1408,
            "byteOffset" : 10828
        },
        {
            "buffer" : 0,
            "byteLength" : 504,
            "byteOffset" : 12236
        },
        {
            "buffer" : 0,
            "byteLength" : 744,
            "byteOffset" : 12740
        },
        {
            "buffer" : 0,
            "byteLength" : 744,
            "byteOffset" : 13484
        },
        {
            "buffer" : 0,
            "byteLength" : 496,
            "byteOffset" : 14228
        },
        {
            "buffer" : 0,
            "byteLength" : 180,
            "byteOffset" : 14724
        }
    ],
    "buffers" : [
        {
            "byteLength" : 14904,
            "uri" : "data:application/octet-stream;base64,"
        }
    ]
}
