{
    "asset" : {
        "generator" : "Khronos glTF Blender I/O v1.3.48",
        "version" : "2.0"
    },
    "scene" : 0,
    "scenes" : [
        {
            "name" : "Scene",
            "nodes" : [
                0
            ]
        }
    ],
    "nodes" : [
        {
            "mesh" : 0,
            "name" : "WoodFloor"
        }
    ],
    "materials" : [
        {
            "doubleSided" : true,
            "name" : "lighjt wood",
            "pbrMetallicRoughness" : {}
        },
        {
            "doubleSided" : true,
            "name" : "dark wood",
            "pbrMetallicRoughness" : {}
        }
    ],
    "meshes" : [
        {
            "name" : "Cube",
            "primitives" : [
                {
                    "attributes" : {
                        "POSITION" : 0,
                        "NORMAL" : 1,
                        "TEXCOORD_0" : 2
                    },
                    "indices" : 3,
                    "material" : 0
                },
                {
                    "attributes" : {
                        "POSITION" : 4,
                        "NORMAL" : 5,
                        "TEXCOORD_0" : 6
                    },
                    "indices" : 7,
                    "material" : 1
                }
            ]
        }
    ],
    "accessors" : [
        {
            "bufferView" : 0,
            "componentType" : 5126,
            "count" : 684,
            "max" : [
                2.4479269981384277,
                0.199982151389122,
                2.481856107711792
            ],
            "min" : [
                -2.4963064193725586,
                -0.00026682019233703613,
                -2.518143892288208
            ],
            "type" : "VEC3"
        },
        {
            "bufferView" : 1,
            "componentType" : 5126,
            "count" : 684,
            "type" : "VEC3"
        },
        {
            "bufferView" : 2,
            "componentType" : 5126,
            "count" : 684,
            "type" : "VEC2"
        },
        {
            "bufferView" : 3,
            "componentType" : 5123,
            "count" : 1212,
            "type" : "SCALAR"
        },
        {
            "bufferView" : 4,
            "componentType" : 5126,
            "count" : 1152,
            "max" : [
                2.4758102893829346,
                0.199982151389122,
                2.481856107711792
            ],
            "min" : [
                -2.5241897106170654,
                -0.00026682019233703613,
                -2.518143892288208
            ],
            "type" : "VEC3"
        },
        {
            "bufferView" : 5,
            "componentType" : 5126,
            "count" : 1152,
            "type" : "VEC3"
        },
        {
            "bufferView" : 6,
            "componentType" : 5126,
            "count" : 1152,
            "type" : "VEC2"
        },
        {
            "bufferView" : 7,
            "componentType" : 5123,
            "count" : 3012,
            "type" : "SCALAR"
        }
    ],
    "bufferViews" : [
        {
            "buffer" : 0,
            "byteLength" : 8208,
            "byteOffset" : 0
        },
        {
            "buffer" : 0,
            "byteLength" : 8208,
            "byteOffset" : 8208
        },
        {
            "buffer" : 0,
            "byteLength" : 5472,
            "byteOffset" : 16416
        },
        {
            "buffer" : 0,
            "byteLength" : 2424,
            "byteOffset" : 21888
        },
        {
            "buffer" : 0,
            "byteLength" : 13824,
            "byteOffset" : 24312
        },
        {
            "buffer" : 0,
            "byteLength" : 13824,
            "byteOffset" : 38136
        },
        {
            "buffer" : 0,
            "byteLength" : 9216,
            "byteOffset" : 51960
        },
        {
            "buffer" : 0,
            "byteLength" : 6024,
            "byteOffset" : 61176
        }
    ],
    "buffers" : [
        {
            "byteLength" : 67200,
            "uri" : "data:application/octet-stream;base64,"
        }
    ]
}
