{
    "asset" : {
        "generator" : "Khronos glTF Blender I/O v1.3.48",
        "version" : "2.0"
    },
    "scene" : 0,
    "scenes" : [
        {
            "name" : "Scene",
            "nodes" : [
                0
            ]
        }
    ],
    "nodes" : [
        {
            "mesh" : 0,
            "name" : "CanonballPile",
            "rotation" : [
                0,
                0.1497221291065216,
                0,
                0.9887281060218811
            ],
            "scale" : [
                0.47207146883010864,
                0.47207146883010864,
                0.47207146883010864
            ]
        }
    ],
    "materials" : [
        {
            "doubleSided" : true,
            "name" : "black",
            "pbrMetallicRoughness" : {}
        }
    ],
    "meshes" : [
        {
            "name" : "Icosphere.003",
            "primitives" : [
                {
                    "attributes" : {
                        "POSITION" : 0,
                        "NORMAL" : 1,
                        "TEXCOORD_0" : 2
                    },
                    "indices" : 3,
                    "material" : 0
                }
            ]
        }
    ],
    "accessors" : [
        {
            "bufferView" : 0,
            "componentType" : 5126,
            "count" : 1200,
            "max" : [
                2.147258758544922,
                3.3607258796691895,
                2.3115382194519043
            ],
            "min" : [
                -2.296034097671509,
                0.0015774965286254883,
                -2.255317449569702
            ],
            "type" : "VEC3"
        },
        {
            "bufferView" : 1,
            "componentType" : 5126,
            "count" : 1200,
            "type" : "VEC3"
        },
        {
            "bufferView" : 2,
            "componentType" : 5126,
            "count" : 1200,
            "type" : "VEC2"
        },
        {
            "bufferView" : 3,
            "componentType" : 5123,
            "count" : 1200,
            "type" : "SCALAR"
        }
    ],
    "bufferViews" : [
        {
            "buffer" : 0,
            "byteLength" : 14400,
            "byteOffset" : 0
        },
        {
            "buffer" : 0,
            "byteLength" : 14400,
            "byteOffset" : 14400
        },
        {
            "buffer" : 0,
            "byteLength" : 9600,
            "byteOffset" : 28800
        },
        {
            "buffer" : 0,
            "byteLength" : 2400,
            "byteOffset" : 38400
        }
    ],
    "buffers" : [
        {
            "byteLength" : 40800,
            "uri" : "data:application/octet-stream;base64,"
        }
    ]
}
