{
    "asset" : {
        "generator" : "Khronos glTF Blender I/O v1.3.48",
        "version" : "2.0"
    },
    "scene" : 0,
    "scenes" : [
        {
            "name" : "Scene",
            "nodes" : [
                0
            ]
        }
    ],
    "nodes" : [
        {
            "mesh" : 0,
            "name" : "FloorCobbleLeft"
        }
    ],
    "materials" : [
        {
            "doubleSided" : true,
            "name" : "dark grey",
            "pbrMetallicRoughness" : {}
        },
        {
            "doubleSided" : true,
            "name" : "light grey",
            "pbrMetallicRoughness" : {}
        }
    ],
    "meshes" : [
        {
            "name" : "Cube.006",
            "primitives" : [
                {
                    "attributes" : {
                        "POSITION" : 0,
                        "NORMAL" : 1,
                        "TEXCOORD_0" : 2
                    },
                    "indices" : 3,
                    "material" : 0
                },
                {
                    "attributes" : {
                        "POSITION" : 4,
                        "NORMAL" : 5,
                        "TEXCOORD_0" : 6
                    },
                    "indices" : 7,
                    "material" : 1
                }
            ]
        }
    ],
    "accessors" : [
        {
            "bufferView" : 0,
            "componentType" : 5126,
            "count" : 1632,
            "max" : [
                2.5001380443573,
                0.45643195509910583,
                2.5
            ],
            "min" : [
                -2.500000238418579,
                -4.37113897078234e-07,
                -2.5040555000305176
            ],
            "type" : "VEC3"
        },
        {
            "bufferView" : 1,
            "componentType" : 5126,
            "count" : 1632,
            "type" : "VEC3"
        },
        {
            "bufferView" : 2,
            "componentType" : 5126,
            "count" : 1632,
            "type" : "VEC2"
        },
        {
            "bufferView" : 3,
            "componentType" : 5123,
            "count" : 2445,
            "type" : "SCALAR"
        },
        {
            "bufferView" : 4,
            "componentType" : 5126,
            "count" : 434,
            "max" : [
                2.5001380443573,
                0.2155345380306244,
                2.4998021125793457
            ],
            "min" : [
                -2.500000238418579,
                0.19999994337558746,
                -2.5
            ],
            "type" : "VEC3"
        },
        {
            "bufferView" : 5,
            "componentType" : 5126,
            "count" : 434,
            "type" : "VEC3"
        },
        {
            "bufferView" : 6,
            "componentType" : 5126,
            "count" : 434,
            "type" : "VEC2"
        },
        {
            "bufferView" : 7,
            "componentType" : 5123,
            "count" : 762,
            "type" : "SCALAR"
        }
    ],
    "bufferViews" : [
        {
            "buffer" : 0,
            "byteLength" : 19584,
            "byteOffset" : 0
        },
        {
            "buffer" : 0,
            "byteLength" : 19584,
            "byteOffset" : 19584
        },
        {
            "buffer" : 0,
            "byteLength" : 13056,
            "byteOffset" : 39168
        },
        {
            "buffer" : 0,
            "byteLength" : 4890,
            "byteOffset" : 52224
        },
        {
            "buffer" : 0,
            "byteLength" : 5208,
            "byteOffset" : 57116
        },
        {
            "buffer" : 0,
            "byteLength" : 5208,
            "byteOffset" : 62324
        },
        {
            "buffer" : 0,
            "byteLength" : 3472,
            "byteOffset" : 67532
        },
        {
            "buffer" : 0,
            "byteLength" : 1524,
            "byteOffset" : 71004
        }
    ],
    "buffers" : [
        {
            "byteLength" : 72528,
            "uri" : "data:application/octet-stream;base64,"
        }
    ]
}
