{
    "asset" : {
        "generator" : "Khronos glTF Blender I/O v1.3.48",
        "version" : "2.0"
    },
    "scene" : 0,
    "scenes" : [
        {
            "name" : "Scene",
            "nodes" : [
                0
            ]
        }
    ],
    "nodes" : [
        {
            "mesh" : 0,
            "name" : "GroundWall"
        }
    ],
    "materials" : [
        {
            "doubleSided" : true,
            "name" : "grey",
            "pbrMetallicRoughness" : {}
        },
        {
            "doubleSided" : true,
            "name" : "white",
            "pbrMetallicRoughness" : {}
        },
        {
            "doubleSided" : true,
            "name" : "lighter grey",
            "pbrMetallicRoughness" : {}
        },
        {
            "doubleSided" : true,
            "name" : "wood",
            "pbrMetallicRoughness" : {}
        }
    ],
    "meshes" : [
        {
            "name" : "Cube.001",
            "primitives" : [
                {
                    "attributes" : {
                        "POSITION" : 0,
                        "NORMAL" : 1,
                        "TEXCOORD_0" : 2
                    },
                    "indices" : 3,
                    "material" : 0
                },
                {
                    "attributes" : {
                        "POSITION" : 4,
                        "NORMAL" : 5,
                        "TEXCOORD_0" : 6
                    },
                    "indices" : 7,
                    "material" : 1
                },
                {
                    "attributes" : {
                        "POSITION" : 8,
                        "NORMAL" : 9,
                        "TEXCOORD_0" : 10
                    },
                    "indices" : 11,
                    "material" : 2
                },
                {
                    "attributes" : {
                        "POSITION" : 12,
                        "NORMAL" : 13,
                        "TEXCOORD_0" : 14
                    },
                    "indices" : 15,
                    "material" : 3
                }
            ]
        }
    ],
    "accessors" : [
        {
            "bufferView" : 0,
            "componentType" : 5126,
            "count" : 2417,
            "max" : [
                2.499999523162842,
                1.6071425676345825,
                2.499999523162842
            ],
            "min" : [
                -2.5,
                -4.1489454360998934e-07,
                -2.5
            ],
            "type" : "VEC3"
        },
        {
            "bufferView" : 1,
            "componentType" : 5126,
            "count" : 2417,
            "type" : "VEC3"
        },
        {
            "bufferView" : 2,
            "componentType" : 5126,
            "count" : 2417,
            "type" : "VEC2"
        },
        {
            "bufferView" : 3,
            "componentType" : 5123,
            "count" : 3732,
            "type" : "SCALAR"
        },
        {
            "bufferView" : 4,
            "componentType" : 5126,
            "count" : 197,
            "max" : [
                2.499999523162842,
                5,
                2.499999523162842
            ],
            "min" : [
                -2.499999523162842,
                1.607142448425293,
                -2.499999523162842
            ],
            "type" : "VEC3"
        },
        {
            "bufferView" : 5,
            "componentType" : 5126,
            "count" : 197,
            "type" : "VEC3"
        },
        {
            "bufferView" : 6,
            "componentType" : 5126,
            "count" : 197,
            "type" : "VEC2"
        },
        {
            "bufferView" : 7,
            "componentType" : 5123,
            "count" : 363,
            "type" : "SCALAR"
        },
        {
            "bufferView" : 8,
            "componentType" : 5126,
            "count" : 488,
            "max" : [
                2.3461380004882812,
                1.5821425914764404,
                2.3461380004882812
            ],
            "min" : [
                -2.3461380004882812,
                0.02499966509640217,
                -2.3461380004882812
            ],
            "type" : "VEC3"
        },
        {
            "bufferView" : 9,
            "componentType" : 5126,
            "count" : 488,
            "type" : "VEC3"
        },
        {
            "bufferView" : 10,
            "componentType" : 5126,
            "count" : 488,
            "type" : "VEC2"
        },
        {
            "bufferView" : 11,
            "componentType" : 5123,
            "count" : 1020,
            "type" : "SCALAR"
        },
        {
            "bufferView" : 12,
            "componentType" : 5126,
            "count" : 167,
            "max" : [
                2.499999523162842,
                5,
                2.499999523162842
            ],
            "min" : [
                -2.371138095855713,
                -4.1489454360998934e-07,
                -2.499999523162842
            ],
            "type" : "VEC3"
        },
        {
            "bufferView" : 13,
            "componentType" : 5126,
            "count" : 167,
            "type" : "VEC3"
        },
        {
            "bufferView" : 14,
            "componentType" : 5126,
            "count" : 167,
            "type" : "VEC2"
        },
        {
            "bufferView" : 15,
            "componentType" : 5123,
            "count" : 273,
            "type" : "SCALAR"
        }
    ],
    "bufferViews" : [
        {
            "buffer" : 0,
            "byteLength" : 29004,
            "byteOffset" : 0
        },
        {
            "buffer" : 0,
            "byteLength" : 29004,
            "byteOffset" : 29004
        },
        {
            "buffer" : 0,
            "byteLength" : 19336,
            "byteOffset" : 58008
        },
        {
            "buffer" : 0,
            "byteLength" : 7464,
            "byteOffset" : 77344
        },
        {
            "buffer" : 0,
            "byteLength" : 2364,
            "byteOffset" : 84808
        },
        {
            "buffer" : 0,
            "byteLength" : 2364,
            "byteOffset" : 87172
        },
        {
            "buffer" : 0,
            "byteLength" : 1576,
            "byteOffset" : 89536
        },
        {
            "buffer" : 0,
            "byteLength" : 726,
            "byteOffset" : 91112
        },
        {
            "buffer" : 0,
            "byteLength" : 5856,
            "byteOffset" : 91840
        },
        {
            "buffer" : 0,
            "byteLength" : 5856,
            "byteOffset" : 97696
        },
        {
            "buffer" : 0,
            "byteLength" : 3904,
            "byteOffset" : 103552
        },
        {
            "buffer" : 0,
            "byteLength" : 2040,
            "byteOffset" : 107456
        },
        {
            "buffer" : 0,
            "byteLength" : 2004,
            "byteOffset" : 109496
        },
        {
            "buffer" : 0,
            "byteLength" : 2004,
            "byteOffset" : 111500
        },
        {
            "buffer" : 0,
            "byteLength" : 1336,
            "byteOffset" : 113504
        },
        {
            "buffer" : 0,
            "byteLength" : 546,
            "byteOffset" : 114840
        }
    ],
    "buffers" : [
        {
            "byteLength" : 115388,
            "uri" : "data:application/octet-stream;base64,"
        }
    ]
}
