{
    "asset" : {
        "generator" : "Khronos glTF Blender I/O v1.3.48",
        "version" : "2.0"
    },
    "scene" : 0,
    "scenes" : [
        {
            "name" : "Scene",
            "nodes" : [
                0
            ]
        }
    ],
    "nodes" : [
        {
            "mesh" : 0,
            "name" : "SecondLevelWallCorner"
        }
    ],
    "materials" : [
        {
            "doubleSided" : true,
            "name" : "white.001",
            "pbrMetallicRoughness" : {}
        },
        {
            "doubleSided" : true,
            "name" : "wood.001",
            "pbrMetallicRoughness" : {}
        }
    ],
    "meshes" : [
        {
            "name" : "Cube.001",
            "primitives" : [
                {
                    "attributes" : {
                        "POSITION" : 0,
                        "NORMAL" : 1,
                        "TEXCOORD_0" : 2
                    },
                    "indices" : 3,
                    "material" : 0
                },
                {
                    "attributes" : {
                        "POSITION" : 4,
                        "NORMAL" : 5,
                        "TEXCOORD_0" : 6
                    },
                    "indices" : 7,
                    "material" : 1
                }
            ]
        }
    ],
    "accessors" : [
        {
            "bufferView" : 0,
            "componentType" : 5126,
            "count" : 431,
            "max" : [
                2.500000238418579,
                5,
                2.5
            ],
            "min" : [
                -2.5,
                0,
                -2.500000238418579
            ],
            "type" : "VEC3"
        },
        {
            "bufferView" : 1,
            "componentType" : 5126,
            "count" : 431,
            "type" : "VEC3"
        },
        {
            "bufferView" : 2,
            "componentType" : 5126,
            "count" : 431,
            "type" : "VEC2"
        },
        {
            "bufferView" : 3,
            "componentType" : 5123,
            "count" : 1260,
            "type" : "SCALAR"
        },
        {
            "bufferView" : 4,
            "componentType" : 5126,
            "count" : 1020,
            "max" : [
                2.500000238418579,
                5,
                2.5
            ],
            "min" : [
                -2.5,
                0,
                -2.5
            ],
            "type" : "VEC3"
        },
        {
            "bufferView" : 5,
            "componentType" : 5126,
            "count" : 1020,
            "type" : "VEC3"
        },
        {
            "bufferView" : 6,
            "componentType" : 5126,
            "count" : 1020,
            "type" : "VEC2"
        },
        {
            "bufferView" : 7,
            "componentType" : 5123,
            "count" : 1920,
            "type" : "SCALAR"
        }
    ],
    "bufferViews" : [
        {
            "buffer" : 0,
            "byteLength" : 5172,
            "byteOffset" : 0
        },
        {
            "buffer" : 0,
            "byteLength" : 5172,
            "byteOffset" : 5172
        },
        {
            "buffer" : 0,
            "byteLength" : 3448,
            "byteOffset" : 10344
        },
        {
            "buffer" : 0,
            "byteLength" : 2520,
            "byteOffset" : 13792
        },
        {
            "buffer" : 0,
            "byteLength" : 12240,
            "byteOffset" : 16312
        },
        {
            "buffer" : 0,
            "byteLength" : 12240,
            "byteOffset" : 28552
        },
        {
            "buffer" : 0,
            "byteLength" : 8160,
            "byteOffset" : 40792
        },
        {
            "buffer" : 0,
            "byteLength" : 3840,
            "byteOffset" : 48952
        }
    ],
    "buffers" : [
        {
            "byteLength" : 52792,
            "uri" : "data:application/octet-stream;base64,"
        }
    ]
}
