{
    "asset" : {
        "generator" : "Khronos glTF Blender I/O v1.3.48",
        "version" : "2.0"
    },
    "scene" : 0,
    "scenes" : [
        {
            "name" : "Scene",
            "nodes" : [
                0,
                1,
                2,
                3,
                4
            ]
        }
    ],
    "nodes" : [
        {
            "mesh" : 0,
            "name" : "Cube",
            "scale" : [
                0.5,
                0.5,
                0.5
            ]
        },
        {
            "mesh" : 1,
            "name" : "Cube.001",
            "rotation" : [
                0,
                0.15053658187389374,
                0,
                0.9886044263839722
            ],
            "scale" : [
                0.5,
                0.5,
                0.5
            ],
            "translation" : [
                1.167892575263977,
                0,
                -0.11710576713085175
            ]
        },
        {
            "mesh" : 2,
            "name" : "Cube.002",
            "rotation" : [
                0,
                -0.08568602055311203,
                0,
                0.9963222146034241
            ],
            "scale" : [
                0.5,
                0.5,
                0.5
            ],
            "translation" : [
                0.622422993183136,
                1,
                -0.11710576713085175
            ]
        },
        {
            "mesh" : 3,
            "name" : "Cylinder",
            "scale" : [
                0.4353243112564087,
                0.6131771206855774,
                0.4353243112564087
            ],
            "translation" : [
                0.6070762872695923,
                0,
                -1.1047694683074951
            ]
        },
        {
            "mesh" : 4,
            "name" : "Plane",
            "scale" : [
                2.069528341293335,
                2.069528341293335,
                2.069528341293335
            ],
            "translation" : [
                0,
                3.1423027515411377,
                0
            ]
        }
    ],
    "materials" : [
        {
            "doubleSided" : true,
            "name" : "metal",
            "pbrMetallicRoughness" : {}
        },
        {
            "doubleSided" : true,
            "name" : "wood",
            "pbrMetallicRoughness" : {}
        },
        {
            "doubleSided" : true,
            "name" : "metal.001",
            "pbrMetallicRoughness" : {}
        },
        {
            "doubleSided" : true,
            "name" : "wood.001",
            "pbrMetallicRoughness" : {}
        },
        {
            "doubleSided" : true,
            "name" : "black",
            "pbrMetallicRoughness" : {}
        }
    ],
    "meshes" : [
        {
            "name" : "Cube.001",
            "primitives" : [
                {
                    "attributes" : {
                        "POSITION" : 0,
                        "NORMAL" : 1,
                        "TEXCOORD_0" : 2
                    },
                    "indices" : 3,
                    "material" : 0
                },
                {
                    "attributes" : {
                        "POSITION" : 4,
                        "NORMAL" : 5,
                        "TEXCOORD_0" : 6
                    },
                    "indices" : 7,
                    "material" : 1
                }
            ]
        },
        {
            "name" : "Cube.002",
            "primitives" : [
                {
                    "attributes" : {
                        "POSITION" : 8,
                        "NORMAL" : 9,
                        "TEXCOORD_0" : 10
                    },
                    "indices" : 3,
                    "material" : 0
                },
                {
                    "attributes" : {
                        "POSITION" : 11,
                        "NORMAL" : 12,
                        "TEXCOORD_0" : 13
                    },
                    "indices" : 7,
                    "material" : 1
                }
            ]
        },
        {
            "name" : "Cube.003",
            "primitives" : [
                {
                    "attributes" : {
                        "POSITION" : 14,
                        "NORMAL" : 15,
                        "TEXCOORD_0" : 16
                    },
                    "indices" : 3,
                    "material" : 0
                },
                {
                    "attributes" : {
                        "POSITION" : 17,
                        "NORMAL" : 18,
                        "TEXCOORD_0" : 19
                    },
                    "indices" : 7,
                    "material" : 1
                }
            ]
        },
        {
            "name" : "Cylinder",
            "primitives" : [
                {
                    "attributes" : {
                        "POSITION" : 20,
                        "NORMAL" : 21,
                        "TEXCOORD_0" : 22
                    },
                    "indices" : 23,
                    "material" : 2
                },
                {
                    "attributes" : {
                        "POSITION" : 24,
                        "NORMAL" : 25,
                        "TEXCOORD_0" : 26
                    },
                    "indices" : 27,
                    "material" : 3
                }
            ]
        },
        {
            "name" : "Plane",
            "primitives" : [
                {
                    "attributes" : {
                        "POSITION" : 28,
                        "NORMAL" : 29,
                        "TEXCOORD_0" : 30
                    },
                    "indices" : 31,
                    "material" : 4
                }
            ]
        }
    ],
    "accessors" : [
        {
            "bufferView" : 0,
            "componentType" : 5126,
            "count" : 397,
            "max" : [
                1,
                2,
                1
            ],
            "min" : [
                -1,
                0,
                -1
            ],
            "type" : "VEC3"
        },
        {
            "bufferView" : 1,
            "componentType" : 5126,
            "count" : 397,
            "type" : "VEC3"
        },
        {
            "bufferView" : 2,
            "componentType" : 5126,
            "count" : 397,
            "type" : "VEC2"
        },
        {
            "bufferView" : 3,
            "componentType" : 5123,
            "count" : 750,
            "type" : "SCALAR"
        },
        {
            "bufferView" : 4,
            "componentType" : 5126,
            "count" : 88,
            "max" : [
                0.9717553853988647,
                1.939247488975525,
                0.9680109024047852
            ],
            "min" : [
                -0.9717553853988647,
                0.02749788761138916,
                -0.9725021123886108
            ],
            "type" : "VEC3"
        },
        {
            "bufferView" : 5,
            "componentType" : 5126,
            "count" : 88,
            "type" : "VEC3"
        },
        {
            "bufferView" : 6,
            "componentType" : 5126,
            "count" : 88,
            "type" : "VEC2"
        },
        {
            "bufferView" : 7,
            "componentType" : 5123,
            "count" : 150,
            "type" : "SCALAR"
        },
        {
            "bufferView" : 8,
            "componentType" : 5126,
            "count" : 397,
            "max" : [
                1,
                2,
                1
            ],
            "min" : [
                -1,
                0,
                -1
            ],
            "type" : "VEC3"
        },
        {
            "bufferView" : 9,
            "componentType" : 5126,
            "count" : 397,
            "type" : "VEC3"
        },
        {
            "bufferView" : 10,
            "componentType" : 5126,
            "count" : 397,
            "type" : "VEC2"
        },
        {
            "bufferView" : 11,
            "componentType" : 5126,
            "count" : 88,
            "max" : [
                0.9717553853988647,
                1.939247488975525,
                0.9680109024047852
            ],
            "min" : [
                -0.9717553853988647,
                0.02749788761138916,
                -0.9725021123886108
            ],
            "type" : "VEC3"
        },
        {
            "bufferView" : 12,
            "componentType" : 5126,
            "count" : 88,
            "type" : "VEC3"
        },
        {
            "bufferView" : 13,
            "componentType" : 5126,
            "count" : 88,
            "type" : "VEC2"
        },
        {
            "bufferView" : 14,
            "componentType" : 5126,
            "count" : 397,
            "max" : [
                1,
                2,
                1
            ],
            "min" : [
                -1,
                0,
                -1
            ],
            "type" : "VEC3"
        },
        {
            "bufferView" : 15,
            "componentType" : 5126,
            "count" : 397,
            "type" : "VEC3"
        },
        {
            "bufferView" : 16,
            "componentType" : 5126,
            "count" : 397,
            "type" : "VEC2"
        },
        {
            "bufferView" : 17,
            "componentType" : 5126,
            "count" : 88,
            "max" : [
                0.9717553853988647,
                1.939247488975525,
                0.9680109024047852
            ],
            "min" : [
                -0.9717553853988647,
                0.02749788761138916,
                -0.9725021123886108
            ],
            "type" : "VEC3"
        },
        {
            "bufferView" : 18,
            "componentType" : 5126,
            "count" : 88,
            "type" : "VEC3"
        },
        {
            "bufferView" : 19,
            "componentType" : 5126,
            "count" : 88,
            "type" : "VEC2"
        },
        {
            "bufferView" : 20,
            "componentType" : 5126,
            "count" : 440,
            "max" : [
                1.1039149761199951,
                2.003801107406616,
                1.1039149761199951
            ],
            "min" : [
                -1.1039149761199951,
                -0.0020542810671031475,
                -1.1039149761199951
            ],
            "type" : "VEC3"
        },
        {
            "bufferView" : 21,
            "componentType" : 5126,
            "count" : 440,
            "type" : "VEC3"
        },
        {
            "bufferView" : 22,
            "componentType" : 5126,
            "count" : 440,
            "type" : "VEC2"
        },
        {
            "bufferView" : 23,
            "componentType" : 5123,
            "count" : 690,
            "type" : "SCALAR"
        },
        {
            "bufferView" : 24,
            "componentType" : 5126,
            "count" : 136,
            "max" : [
                1.0819765329360962,
                1.9198544025421143,
                1.0819765329360962
            ],
            "min" : [
                -1.0819765329360962,
                0.11509665846824646,
                -1.0819765329360962
            ],
            "type" : "VEC3"
        },
        {
            "bufferView" : 25,
            "componentType" : 5126,
            "count" : 136,
            "type" : "VEC3"
        },
        {
            "bufferView" : 26,
            "componentType" : 5126,
            "count" : 136,
            "type" : "VEC2"
        },
        {
            "bufferView" : 27,
            "componentType" : 5123,
            "count" : 210,
            "type" : "SCALAR"
        },
        {
            "bufferView" : 28,
            "componentType" : 5126,
            "count" : 32768,
            "max" : [
                0.7796375751495361,
                -0.5079363584518433,
                0.8788812160491943
            ],
            "min" : [
                -0.7875798344612122,
                -1.5769580602645874,
                -0.8879598379135132
            ],
            "type" : "VEC3"
        },
        {
            "bufferView" : 29,
            "componentType" : 5126,
            "count" : 32768,
            "type" : "VEC3"
        },
        {
            "bufferView" : 30,
            "componentType" : 5126,
            "count" : 32768,
            "type" : "VEC2"
        },
        {
            "bufferView" : 31,
            "componentType" : 5123,
            "count" : 49152,
            "type" : "SCALAR"
        }
    ],
    "bufferViews" : [
        {
            "buffer" : 0,
            "byteLength" : 4764,
            "byteOffset" : 0
        },
        {
            "buffer" : 0,
            "byteLength" : 4764,
            "byteOffset" : 4764
        },
        {
            "buffer" : 0,
            "byteLength" : 3176,
            "byteOffset" : 9528
        },
        {
            "buffer" : 0,
            "byteLength" : 1500,
            "byteOffset" : 12704
        },
        {
            "buffer" : 0,
            "byteLength" : 1056,
            "byteOffset" : 14204
        },
        {
            "buffer" : 0,
            "byteLength" : 1056,
            "byteOffset" : 15260
        },
        {
            "buffer" : 0,
            "byteLength" : 704,
            "byteOffset" : 16316
        },
        {
            "buffer" : 0,
            "byteLength" : 300,
            "byteOffset" : 17020
        },
        {
            "buffer" : 0,
            "byteLength" : 4764,
            "byteOffset" : 17320
        },
        {
            "buffer" : 0,
            "byteLength" : 4764,
            "byteOffset" : 22084
        },
        {
            "buffer" : 0,
            "byteLength" : 3176,
            "byteOffset" : 26848
        },
        {
            "buffer" : 0,
            "byteLength" : 1056,
            "byteOffset" : 30024
        },
        {
            "buffer" : 0,
            "byteLength" : 1056,
            "byteOffset" : 31080
        },
        {
            "buffer" : 0,
            "byteLength" : 704,
            "byteOffset" : 32136
        },
        {
            "buffer" : 0,
            "byteLength" : 4764,
            "byteOffset" : 32840
        },
        {
            "buffer" : 0,
            "byteLength" : 4764,
            "byteOffset" : 37604
        },
        {
            "buffer" : 0,
            "byteLength" : 3176,
            "byteOffset" : 42368
        },
        {
            "buffer" : 0,
            "byteLength" : 1056,
            "byteOffset" : 45544
        },
        {
            "buffer" : 0,
            "byteLength" : 1056,
            "byteOffset" : 46600
        },
        {
            "buffer" : 0,
            "byteLength" : 704,
            "byteOffset" : 47656
        },
        {
            "buffer" : 0,
            "byteLength" : 5280,
            "byteOffset" : 48360
        },
        {
            "buffer" : 0,
            "byteLength" : 5280,
            "byteOffset" : 53640
        },
        {
            "buffer" : 0,
            "byteLength" : 3520,
            "byteOffset" : 58920
        },
        {
            "buffer" : 0,
            "byteLength" : 1380,
            "byteOffset" : 62440
        },
        {
            "buffer" : 0,
            "byteLength" : 1632,
            "byteOffset" : 63820
        },
        {
            "buffer" : 0,
            "byteLength" : 1632,
            "byteOffset" : 65452
        },
        {
            "buffer" : 0,
            "byteLength" : 1088,
            "byteOffset" : 67084
        },
        {
            "buffer" : 0,
            "byteLength" : 420,
            "byteOffset" : 68172
        },
        {
            "buffer" : 0,
            "byteLength" : 393216,
            "byteOffset" : 68592
        },
        {
            "buffer" : 0,
            "byteLength" : 393216,
            "byteOffset" : 461808
        },
        {
            "buffer" : 0,
            "byteLength" : 262144,
            "byteOffset" : 855024
        },
        {
            "buffer" : 0,
            "byteLength" : 98304,
            "byteOffset" : 1117168
        }
    ],
    "buffers" : [
        {
            "byteLength" : 1215472,
            "uri" : "data:application/octet-stream;base64,"
        }
    ]
}
