{
    "asset" : {
        "generator" : "Khronos glTF Blender I/O v1.3.48",
        "version" : "2.0"
    },
    "scene" : 0,
    "scenes" : [
        {
            "name" : "Scene",
            "nodes" : [
                0
            ]
        }
    ],
    "nodes" : [
        {
            "mesh" : 0,
            "name" : "Wall 1",
            "rotation" : [
                1,
                0,
                0,
                -1.6292068494294654e-07
            ],
            "scale" : [
                2.5,
                2.5,
                0.10000000149011612
            ]
        }
    ],
    "materials" : [
        {
            "doubleSided" : true,
            "name" : "grey",
            "pbrMetallicRoughness" : {}
        },
        {
            "doubleSided" : true,
            "name" : "white",
            "pbrMetallicRoughness" : {}
        },
        {
            "doubleSided" : true,
            "name" : "wood",
            "pbrMetallicRoughness" : {}
        }
    ],
    "meshes" : [
        {
            "name" : "Cube.001",
            "primitives" : [
                {
                    "attributes" : {
                        "POSITION" : 0,
                        "NORMAL" : 1,
                        "TEXCOORD_0" : 2
                    },
                    "indices" : 3,
                    "material" : 0
                },
                {
                    "attributes" : {
                        "POSITION" : 4,
                        "NORMAL" : 5,
                        "TEXCOORD_0" : 6
                    },
                    "indices" : 7,
                    "material" : 1
                },
                {
                    "attributes" : {
                        "POSITION" : 8,
                        "NORMAL" : 9,
                        "TEXCOORD_0" : 10
                    },
                    "indices" : 11,
                    "material" : 2
                }
            ]
        }
    ],
    "accessors" : [
        {
            "bufferView" : 0,
            "componentType" : 5126,
            "count" : 1437,
            "max" : [
                0.9999997615814209,
                1.2985563557776914e-07,
                1
            ],
            "min" : [
                -0.9999997615814209,
                -0.7291160821914673,
                -2.76992130279541
            ],
            "type" : "VEC3"
        },
        {
            "bufferView" : 1,
            "componentType" : 5126,
            "count" : 1437,
            "type" : "VEC3"
        },
        {
            "bufferView" : 2,
            "componentType" : 5126,
            "count" : 1437,
            "type" : "VEC2"
        },
        {
            "bufferView" : 3,
            "componentType" : 5123,
            "count" : 2451,
            "type" : "SCALAR"
        },
        {
            "bufferView" : 4,
            "componentType" : 5126,
            "count" : 77,
            "max" : [
                0.9999997615814209,
                -0.642857015132904,
                1
            ],
            "min" : [
                -0.9999997615814209,
                -1.9999998807907104,
                -0.9999999403953552
            ],
            "type" : "VEC3"
        },
        {
            "bufferView" : 5,
            "componentType" : 5126,
            "count" : 77,
            "type" : "VEC3"
        },
        {
            "bufferView" : 6,
            "componentType" : 5126,
            "count" : 77,
            "type" : "VEC2"
        },
        {
            "bufferView" : 7,
            "componentType" : 5123,
            "count" : 195,
            "type" : "SCALAR"
        },
        {
            "bufferView" : 8,
            "componentType" : 5126,
            "count" : 72,
            "max" : [
                0.9999997615814209,
                1.2985563557776914e-07,
                -0.9999999403953552
            ],
            "min" : [
                -0.9999997615814209,
                -1.9999998807907104,
                -2.76992130279541
            ],
            "type" : "VEC3"
        },
        {
            "bufferView" : 9,
            "componentType" : 5126,
            "count" : 72,
            "type" : "VEC3"
        },
        {
            "bufferView" : 10,
            "componentType" : 5126,
            "count" : 72,
            "type" : "VEC2"
        },
        {
            "bufferView" : 11,
            "componentType" : 5123,
            "count" : 144,
            "type" : "SCALAR"
        }
    ],
    "bufferViews" : [
        {
            "buffer" : 0,
            "byteLength" : 17244,
            "byteOffset" : 0
        },
        {
            "buffer" : 0,
            "byteLength" : 17244,
            "byteOffset" : 17244
        },
        {
            "buffer" : 0,
            "byteLength" : 11496,
            "byteOffset" : 34488
        },
        {
            "buffer" : 0,
            "byteLength" : 4902,
            "byteOffset" : 45984
        },
        {
            "buffer" : 0,
            "byteLength" : 924,
            "byteOffset" : 50888
        },
        {
            "buffer" : 0,
            "byteLength" : 924,
            "byteOffset" : 51812
        },
        {
            "buffer" : 0,
            "byteLength" : 616,
            "byteOffset" : 52736
        },
        {
            "buffer" : 0,
            "byteLength" : 390,
            "byteOffset" : 53352
        },
        {
            "buffer" : 0,
            "byteLength" : 864,
            "byteOffset" : 53744
        },
        {
            "buffer" : 0,
            "byteLength" : 864,
            "byteOffset" : 54608
        },
        {
            "buffer" : 0,
            "byteLength" : 576,
            "byteOffset" : 55472
        },
        {
            "buffer" : 0,
            "byteLength" : 288,
            "byteOffset" : 56048
        }
    ],
    "buffers" : [
        {
            "byteLength" : 56336,
            "uri" : "data:application/octet-stream;base64,"
        }
    ]
}
