{
    "asset" : {
        "generator" : "Khronos glTF Blender I/O v1.3.48",
        "version" : "2.0"
    },
    "scene" : 0,
    "scenes" : [
        {
            "name" : "Scene",
            "nodes" : [
                0
            ]
        }
    ],
    "nodes" : [
        {
            "mesh" : 0,
            "name" : "GroundWallDoor"
        }
    ],
    "materials" : [
        {
            "doubleSided" : true,
            "name" : "wood",
            "pbrMetallicRoughness" : {}
        },
        {
            "doubleSided" : true,
            "name" : "grey",
            "pbrMetallicRoughness" : {}
        },
        {
            "doubleSided" : true,
            "name" : "white",
            "pbrMetallicRoughness" : {}
        },
        {
            "doubleSided" : true,
            "name" : "lighter grey",
            "pbrMetallicRoughness" : {}
        }
    ],
    "meshes" : [
        {
            "name" : "Cube.002",
            "primitives" : [
                {
                    "attributes" : {
                        "POSITION" : 0,
                        "NORMAL" : 1,
                        "TEXCOORD_0" : 2
                    },
                    "indices" : 3,
                    "material" : 0
                },
                {
                    "attributes" : {
                        "POSITION" : 4,
                        "NORMAL" : 5,
                        "TEXCOORD_0" : 6
                    },
                    "indices" : 7,
                    "material" : 1
                },
                {
                    "attributes" : {
                        "POSITION" : 8,
                        "NORMAL" : 9,
                        "TEXCOORD_0" : 10
                    },
                    "indices" : 11,
                    "material" : 2
                },
                {
                    "attributes" : {
                        "POSITION" : 12,
                        "NORMAL" : 13,
                        "TEXCOORD_0" : 14
                    },
                    "indices" : 15,
                    "material" : 3
                }
            ]
        }
    ],
    "accessors" : [
        {
            "bufferView" : 0,
            "componentType" : 5126,
            "count" : 212,
            "max" : [
                2.499999523162842,
                5,
                -2.123007297515869
            ],
            "min" : [
                -2.499999523162842,
                -4.1489465729682706e-07,
                -2.5760302543640137
            ],
            "type" : "VEC3"
        },
        {
            "bufferView" : 1,
            "componentType" : 5126,
            "count" : 212,
            "type" : "VEC3"
        },
        {
            "bufferView" : 2,
            "componentType" : 5126,
            "count" : 212,
            "type" : "VEC2"
        },
        {
            "bufferView" : 3,
            "componentType" : 5123,
            "count" : 342,
            "type" : "SCALAR"
        },
        {
            "bufferView" : 4,
            "componentType" : 5126,
            "count" : 652,
            "max" : [
                2.499999523162842,
                1.6071425676345825,
                -2.123007297515869
            ],
            "min" : [
                -2.499999523162842,
                -4.1489465729682706e-07,
                -2.5
            ],
            "type" : "VEC3"
        },
        {
            "bufferView" : 5,
            "componentType" : 5126,
            "count" : 652,
            "type" : "VEC3"
        },
        {
            "bufferView" : 6,
            "componentType" : 5126,
            "count" : 652,
            "type" : "VEC2"
        },
        {
            "bufferView" : 7,
            "componentType" : 5123,
            "count" : 1095,
            "type" : "SCALAR"
        },
        {
            "bufferView" : 8,
            "componentType" : 5126,
            "count" : 188,
            "max" : [
                2.499999523162842,
                5,
                -2.267446756362915
            ],
            "min" : [
                -2.499999523162842,
                -3.306074063402775e-07,
                -2.5
            ],
            "type" : "VEC3"
        },
        {
            "bufferView" : 9,
            "componentType" : 5126,
            "count" : 188,
            "type" : "VEC3"
        },
        {
            "bufferView" : 10,
            "componentType" : 5126,
            "count" : 188,
            "type" : "VEC2"
        },
        {
            "bufferView" : 11,
            "componentType" : 5123,
            "count" : 360,
            "type" : "SCALAR"
        },
        {
            "bufferView" : 12,
            "componentType" : 5126,
            "count" : 101,
            "max" : [
                2.3461382389068604,
                1.5821424722671509,
                -2.257441282272339
            ],
            "min" : [
                -2.3461382389068604,
                0.02499966509640217,
                -2.299999952316284
            ],
            "type" : "VEC3"
        },
        {
            "bufferView" : 13,
            "componentType" : 5126,
            "count" : 101,
            "type" : "VEC3"
        },
        {
            "bufferView" : 14,
            "componentType" : 5126,
            "count" : 101,
            "type" : "VEC2"
        },
        {
            "bufferView" : 15,
            "componentType" : 5123,
            "count" : 207,
            "type" : "SCALAR"
        }
    ],
    "bufferViews" : [
        {
            "buffer" : 0,
            "byteLength" : 2544,
            "byteOffset" : 0
        },
        {
            "buffer" : 0,
            "byteLength" : 2544,
            "byteOffset" : 2544
        },
        {
            "buffer" : 0,
            "byteLength" : 1696,
            "byteOffset" : 5088
        },
        {
            "buffer" : 0,
            "byteLength" : 684,
            "byteOffset" : 6784
        },
        {
            "buffer" : 0,
            "byteLength" : 7824,
            "byteOffset" : 7468
        },
        {
            "buffer" : 0,
            "byteLength" : 7824,
            "byteOffset" : 15292
        },
        {
            "buffer" : 0,
            "byteLength" : 5216,
            "byteOffset" : 23116
        },
        {
            "buffer" : 0,
            "byteLength" : 2190,
            "byteOffset" : 28332
        },
        {
            "buffer" : 0,
            "byteLength" : 2256,
            "byteOffset" : 30524
        },
        {
            "buffer" : 0,
            "byteLength" : 2256,
            "byteOffset" : 32780
        },
        {
            "buffer" : 0,
            "byteLength" : 1504,
            "byteOffset" : 35036
        },
        {
            "buffer" : 0,
            "byteLength" : 720,
            "byteOffset" : 36540
        },
        {
            "buffer" : 0,
            "byteLength" : 1212,
            "byteOffset" : 37260
        },
        {
            "buffer" : 0,
            "byteLength" : 1212,
            "byteOffset" : 38472
        },
        {
            "buffer" : 0,
            "byteLength" : 808,
            "byteOffset" : 39684
        },
        {
            "buffer" : 0,
            "byteLength" : 414,
            "byteOffset" : 40492
        }
    ],
    "buffers" : [
        {
            "byteLength" : 40908,
            "uri" : "data:application/octet-stream;base64,"
        }
    ]
}
