{
    "asset" : {
        "generator" : "Khronos glTF Blender I/O v1.3.48",
        "version" : "2.0"
    },
    "scene" : 0,
    "scenes" : [
        {
            "name" : "Scene",
            "nodes" : [
                0
            ]
        }
    ],
    "nodes" : [
        {
            "mesh" : 0,
            "name" : "Key",
            "rotation" : [
                0.7071068286895752,
                0,
                0,
                0.7071068286895752
            ],
            "scale" : [
                0.3669935166835785,
                0.3669935166835785,
                0.3669935166835785
            ],
            "translation" : [
                1.0391387939453125,
                0,
                0
            ]
        }
    ],
    "materials" : [
        {
            "doubleSided" : true,
            "name" : "gold",
            "pbrMetallicRoughness" : {}
        }
    ],
    "meshes" : [
        {
            "name" : "Circle",
            "primitives" : [
                {
                    "attributes" : {
                        "POSITION" : 0,
                        "NORMAL" : 1,
                        "TEXCOORD_0" : 2
                    },
                    "indices" : 3,
                    "material" : 0
                }
            ]
        }
    ],
    "accessors" : [
        {
            "bufferView" : 0,
            "componentType" : 5126,
            "count" : 539,
            "max" : [
                2.145693063735962,
                0.24190056324005127,
                2.362421989440918
            ],
            "min" : [
                -7.188195705413818,
                0,
                -2.362421989440918
            ],
            "type" : "VEC3"
        },
        {
            "bufferView" : 1,
            "componentType" : 5126,
            "count" : 539,
            "type" : "VEC3"
        },
        {
            "bufferView" : 2,
            "componentType" : 5126,
            "count" : 539,
            "type" : "VEC2"
        },
        {
            "bufferView" : 3,
            "componentType" : 5123,
            "count" : 864,
            "type" : "SCALAR"
        }
    ],
    "bufferViews" : [
        {
            "buffer" : 0,
            "byteLength" : 6468,
            "byteOffset" : 0
        },
        {
            "buffer" : 0,
            "byteLength" : 6468,
            "byteOffset" : 6468
        },
        {
            "buffer" : 0,
            "byteLength" : 4312,
            "byteOffset" : 12936
        },
        {
            "buffer" : 0,
            "byteLength" : 1728,
            "byteOffset" : 17248
        }
    ],
    "buffers" : [
        {
            "byteLength" : 18976,
            "uri" : "data:application/octet-stream;base64,"
        }
    ]
}
